<?xml version="1.0" encoding="utf-8"?>
<!--Designed by Vexels.com - 2018 All Rights Reserved - https://vexels.com/terms-and-conditions/-->
<svg version="1.1" id="Layer_1" xmlns="http://www.w3.org/2000/svg" xmlns:xlink="http://www.w3.org/1999/xlink" x="0px" y="0px"
	 viewBox="0 0 1200 1200" enable-background="new 0 0 1200 1200" xml:space="preserve">
<g>
	<path fill="#FFFFFF" d="M500.228,540.958c0.2,0.503,0.328,0.804,0.328,0.804S500.452,541.459,500.228,540.958z"/>
	<path fill="#FFFFFF" d="M224.186,601.48c29.936,6.098,26.231,23.501,26.231,23.501s7.421-24.305,64.398-21.259
		c56.977,3.049,46.805,39.198,88.683,48.061c31.801,6.729,16.531-27.827,21.292-46.333c-43.284-8.85-35.277-56.925-95.216-55.909
		c-60.586,1.029-67.165,34.131-67.165,34.131s3.006-23.553-29.062-29.016c-32.067-5.467-39.21,72.788-68.937,62.031
		c-29.725-10.759-96.89-27.179-111.477-10.499c-14.251,16.294,26.171-3.377,62.077,25.01c16.035,3.771,31.589,8.494,42.072,12.266
		C184.618,653.371,194.255,595.38,224.186,601.48z"/>
	<path fill="#FFFFFF" d="M889.711,585.722c-1.62,0.742-2.515,1.258-2.515,1.258S888.156,586.575,889.711,585.722z"/>
	<path fill="#FFFFFF" d="M1081.349,660.712c-46.381,3.694-69.408,15.769-98.978,0.711c0,0,31.776-16.057-10.823-57.397
		c-36.446-35.37-72.249-22.702-81.837-18.304c-1.556,0.853-2.515,1.258-2.515,1.258s0.895-0.517,2.515-1.258
		c10.477-5.735,48.271-31.865,6.284-93.072c-20.43-29.779-104.12-65.083-153.621,24.543c0,0,5.465-32.069-55.41-43.96
		c-60.875-11.887-115.988,24.835-116.588,71.061c0,0-17.776-43.669-53.223-44.954c-32.644-1.185-19.247,35.765-16.925,41.618
		c0.223,0.501,0.328,0.804,0.328,0.804s-0.128-0.301-0.328-0.804c-1.754-3.966-11.223-21.238-41.059-14.678
		c-23.736,5.212-8.025,46.725-12.551,67.82c20.97,0.431,27.573,11.242,28.899,13.959c-1.969-4.527-13.169-32.952,17.461-30.012
		c33.267,3.193,48.339,36.922,48.339,36.922c2.294-34.483,55.461-58.436,112.228-45.727c56.766,12.716,50.433,36.322,50.433,36.322
		c49.87-63.817,127.201-32.181,145.291-8.654c37.172,48.351,0.678,65.485-9.384,69.107c9.176-2.68,43.296-9.885,76.227,18.824
		c6.878,5.995,11.524,11.229,14.565,15.796c43.597,5.719,29.224,35.025,65.546,23.671c36.99-11.567,64.817-37.446,99.873-25.417
		c35.06,12.027,53.903-3.422,53.903-3.422S1127.733,657.018,1081.349,660.712z"/>
	<path fill="#E5F8FF" d="M916.113,684.842c-32.931-28.709-67.051-21.504-76.227-18.824c-1.495,0.54-2.41,0.781-2.41,0.781
		s0.86-0.326,2.41-0.781c10.062-3.622,46.556-20.756,9.384-69.107c-18.09-23.528-95.422-55.164-145.291,8.654
		c0,0,6.333-23.605-50.433-36.322c-56.768-12.709-109.935,11.244-112.228,45.727c0,0-15.072-33.729-48.339-36.922
		c-30.63-2.94-19.43,25.485-17.461,30.012c0.19,0.388,0.278,0.621,0.278,0.621s-0.109-0.233-0.278-0.621
		c-1.326-2.717-7.929-13.528-28.899-13.959c-1.882,8.776-7.263,14.022-20.448,11.648c-0.478-0.089-0.915-0.206-1.381-0.299
		c-4.762,18.506,10.508,53.062-21.292,46.333c-41.878-8.863-31.706-45.012-88.683-48.061c-56.977-3.045-64.398,21.259-64.398,21.259
		s3.705-17.403-26.231-23.501c-29.931-6.1-39.567,51.891-67.103,41.983c-10.483-3.771-26.037-8.494-42.072-12.266
		c0.851,0.672,1.703,1.344,2.548,2.072c36.505,31.443,126.011,25.009,161.125,5.847c0,0,13.202,47.805,78.817,64.169
		c65.613,16.36,92.913-24.598,92.913-24.598s8.069,44.395,77.423,59.819c69.35,15.424,37.996-98.649,105.006-77.934
		c0,0,24.477,66.497,92.15,68.954c67.67,2.455,98.801-25.458,98.801-25.458s8.201,11.056,33.553,23.805
		c25.351,12.75,24.305-32.461,70.911-27.544c0.843,0.089,1.62,0.202,2.422,0.309C927.637,696.07,922.992,690.836,916.113,684.842z"
		/>
	<path fill="#FFFFFF" d="M475.518,608.059c0.169,0.388,0.278,0.621,0.278,0.621S475.708,608.448,475.518,608.059z"/>
	<path fill="#FFFFFF" d="M839.886,666.017c-1.55,0.455-2.41,0.781-2.41,0.781S838.391,666.557,839.886,666.017z"/>
</g>
</svg>
